miasta20
1
   14.7663371   53.3019864
   14.7210049   53.2795310
   14.6692753   53.2627852
   14.6131209   53.2523856
   14.5546767   53.2487271
   14.4961615   53.2519487
   14.4397967   53.2619279
   14.3877249   53.2782856
   14.3419312   53.3004001
   14.3041693   53.3274294
   14.2758950   53.3583432
   14.2582099   53.3919603
   14.2518165   53.4269939
   14.2569879   53.4620994
   14.2735531   53.4959265
   14.3008997   53.5271706
   14.3379931   53.5546243
   14.3834141   53.5772243
   14.4354124   53.5940939
   14.4919744   53.6045775
   14.5509030   53.6082674
   14.6099057   53.6050200
   14.6666868   53.5949616
   14.7190405   53.5784833
   14.7649387   53.5562253
   14.8026117   53.5290513
   14.8306172   53.4980139
   14.8478948   53.4643127
   14.8538038   53.4292477
   14.8481450   53.3941680
   14.8311633   53.3604202
   14.8035349   53.3292966
   14.7663371   53.3019864
END
2
   17.0814054   52.2542215
   17.0300245   52.2384975
   16.9746595   52.2292031
   16.9174150   52.2266917
   16.8604651   52.2310589
   16.8059731   52.2421390
   16.7560121   52.2595113
   16.7124890   52.2825151
   16.6770728   52.3102742
   16.6511312   52.3417296
   16.6356769   52.3756789
   16.6313266   52.4108212
   16.6382738   52.4458073
   16.6562773   52.4792902
   16.6846664   52.5099785
   16.7223637   52.5366857
   16.7679243   52.5583773
   16.8195905   52.5742120
   16.8753603   52.5835748
   16.9330675   52.5861020
   16.9904675   52.5816954
   17.0453286   52.5705268
   17.0955214   52.5530305
   17.1391037   52.5298860
   17.1743975   52.5019907
   17.2000538   52.4704246
   17.2151033   52.4364069
   17.2189909   52.4012488
   17.2115935   52.3663022
   17.1932211   52.3329076
   17.1646002   52.3023434
   17.1268436   52.2757771
   17.0814054   52.2542215
END
3
   17.1900486   50.9555968
   17.1400904   50.9399009
   17.0862688   50.9306392
   17.0306310   50.9281640
   16.9752910   50.9325699
   16.9223521   50.9436894
   16.8738295   50.9611002
   16.8315757   50.9841397
   16.7972114   51.0119303
   16.7720633   51.0434111
   16.7571127   51.0773785
   16.7529553   51.1125308
   16.7597754   51.1475180
   16.7773346   51.1809936
   16.8049779   51.2116662
   16.8416553   51.2383504
   16.8859608   51.2600130
   16.9361852   51.2758141
   16.9903832   51.2851403
   17.0464504   51.2876295
   17.1022074   51.2831853
   17.1554874   51.2719806
   17.2042233   51.2544510
   17.2465302   51.2312769
   17.2807792   51.2033567
   17.3056612   51.1717708
   17.3202354   51.1377389
   17.3239633   51.1025725
   17.3167262   51.0676237
   17.2988259   51.0342332
   17.2709693   51.0036795
   17.2342388   50.9771298
   17.1900486   50.9555968
END
4
   18.1839949   52.9782484
   18.1336606   52.9604246
   18.0785672   52.9488475
   18.0208109   52.9439566
   17.9625852   52.9459374
   17.9061003   52.9547143
   17.8535029   52.9699534
   17.8067963   52.9910754
   17.7677673   53.0172763
   17.7379177   53.0475574
   17.7184072   53.0807624
   17.7100065   53.1156208
   17.7130646   53.1507957
   17.7274916   53.1849350
   17.7527581   53.2167232
   17.7879110   53.2449324
   17.8316082   53.2684707
   17.8821681   53.2864252
   17.9376350   53.2980983
   17.9958558   53.3030359
   18.0545663   53.3010455
   18.1114824   53.2922043
   18.1643920   53.2768557
   18.2112440   53.2555958
   18.2502296   53.2292496
   18.2798535   53.1988380
   18.2989906   53.1655370
   18.3069268   53.1306318
   18.3033840   53.0954664
   18.2885256   53.0613915
   18.2629471   53.0297128
   18.2276487   53.0016414
   18.1839949   52.9782484
END
5
   18.2218814   54.5121999
   18.2254343   54.5473610
   18.2407332   54.5814422
   18.2672169   54.6131298
   18.3038869   54.6411995
   18.3493429   54.6645642
   18.4018351   54.6823173
   18.4593317   54.6937685
   18.5195994   54.6984723
   18.5802930   54.6962452
   18.6390495   54.6871736
   18.6935842   54.6716102
   18.7417826   54.6501600
   18.7817839   54.6236556
   18.8120547   54.5931244
   18.8314465   54.5597474
   18.8392379   54.5248128
   18.8355306   54.4928701
   18.8574140   54.4830562
   18.8971753   54.4565109
   18.9272342   54.4259483
   18.9464502   54.3925505
   18.9541087   54.3576064
   18.9499441   54.3224615
   18.9341460   54.2884652
   18.9073474   54.2569200
   18.8705962   54.2290314
   18.8253127   54.2058630
   18.7732335   54.1882965
   18.7163455   54.1769994
   18.6568119   54.1724006
   18.5968921   54.1746742
   18.5388597   54.1837337
   18.4849190   54.1992348
   18.4371244   54.2205885
   18.3973043   54.2469824
   18.3669919   54.2774106
   18.3473660   54.3107115
   18.3392040   54.3456109
   18.3425145   54.3775545
   18.3205691   54.3872845
   18.2805105   54.4136364
   18.2499855   54.4440319
   18.2301810   54.4773109
   18.2218814   54.5121999
END
6
   18.6801327   50.1147734
   18.6254348   50.1171240
   18.5724852   50.1262662
   18.5232984   50.1418521
   18.4797501   50.1632885
   18.4435072   50.1897585
   18.4159648   50.2202525
   18.3981925   50.2536050
   18.3908913   50.2885392
   18.3943643   50.3237150
   18.4085014   50.3577800
   18.4327802   50.3894217
   18.4662827   50.4174183
   18.5077280   50.4406869
   18.5555211   50.4583256
   18.6078139   50.4696499
   18.6625783   50.4742198
   18.7176868   50.4718574
   18.7709980   50.4626542
   18.8204423   50.4469673
   18.8757247   50.4168662
   18.9092018   50.4290932
   19.0420162   50.4617046
   19.0968186   50.4660704
   19.1519011   50.4635019
   19.2051233   50.4540987
   19.2544194   50.4382258
   19.2978805   50.4164991
   19.3338304   50.3897608
   19.3608908   50.3590460
   19.3780338   50.3255414
   19.3846195   50.2905394
   19.3804175   50.2553869
   19.3656125   50.2214341
   19.3407938   50.1899820
   19.3069291   50.1622334
   19.2653257   50.1392476
   19.2175792   50.1219006
   19.0855754   50.0894974
   19.0312040   50.0851311
   18.9765523   50.0876477
   18.9236976   50.0969514
   18.8746508   50.1126881
   18.8197232   50.1427872
   18.7864699   50.1305444
   18.7345001   50.1193042
   18.6801327   50.1147734
END
7
   18.7715844   52.8676516
   18.7211288   52.8500754
   18.6660102   52.8387706
   18.6083254   52.8341665
   18.5502651   52.8364375
   18.4940337   52.8454971
   18.4417681   52.8610009
   18.3954599   52.8823594
   18.3568808   52.9087595
   18.3275162   52.9391948
   18.3085073   52.9725031
   18.3006059   53.0074096
   18.3041418   53.0425754
   18.3190066   53.0766486
   18.3446534   53.1083159
   18.3801142   53.1363540
   18.4240342   53.1596776
   18.4747229   53.1773820
   18.5302190   53.1887795
   18.5883682   53.1934267
   18.6469090   53.1911426
   18.7035641   53.1820156
   18.7561318   53.1664004
   18.8025747   53.1449036
   18.8411005   53.1183592
   18.8702321   53.0877955
   18.8888635   53.0543946
   18.8963005   53.0194450
   18.8922841   52.9842923
   18.8769957   52.9502866
   18.8510467   52.9187307
   18.8154512   52.8908309
   18.7715844   52.8676516
END
8
   19.3255182   50.6730357
   19.2834620   50.6500538
   19.2351977   50.6327102
   19.1825679   50.6216648
   19.1275762   50.6173374
   19.0723129   50.6198923
   19.0188780   50.6292320
   18.9693043   50.6450012
   18.9254821   50.6665999
   18.8890891   50.6932051
   18.8615267   50.7238021
   18.8438657   50.7572216
   18.8368038   50.7921841
   18.8406356   50.8273483
   18.8552379   50.8613620
   18.8800707   50.8929145
   18.9141949   50.9207874
   18.9563056   50.9439022
   19.0047816   50.9613629
   19.0577480   50.9724917
   19.1131500   50.9768563
   19.1688349   50.9742866
   19.2226383   50.9648823
   19.2724716   50.9490085
   19.3164047   50.9272814
   19.3527433   50.9005433
   19.3800940   50.8698292
   19.3974184   50.8363263
   19.4040700   50.8013266
   19.3998166   50.7661773
   19.3848457   50.7322282
   19.3597534   50.7007801
   19.3255182   50.6730357
END
9
   19.6214914   51.6117254
   19.5720917   51.5945155
   19.5182789   51.5836142
   19.4621007   51.5794358
   19.4056917   51.5821387
   19.3511947   51.5916200
   19.3006821   51.6075193
   19.2560798   51.6292317
   19.2190954   51.6559303
   19.1911534   51.6865968
   19.1733404   51.7200596
   19.1663609   51.7550376
   19.1705079   51.7901888
   19.1856474   51.8241614
   19.2112197   51.8556460
   19.2462579   51.8834265
   19.2894222   51.9064276
   19.3390504   51.9237576
   19.3932223   51.9347435
   19.4498354   51.9389582
   19.5066891   51.9362377
   19.5615729   51.9266876
   19.6123554   51.9106788
   19.6570696   51.8888329
   19.6939910   51.8619970
   19.7217045   51.8312104
   19.7391585   51.7976630
   19.7457029   51.7626488
   19.7411112   51.7275152
   19.7255851   51.6936114
   19.6997428   51.6622363
   19.6645927   51.6345893
   19.6214914   51.6117254
END
10
   20.1448314   49.9391468
   20.1030160   49.9164596
   20.0551834   49.8994564
   20.0031596   49.8887841
   19.9489253   49.8848486
   19.8945424   49.8877993
   19.8420782   49.8975240
   19.7935293   49.9136527
   19.7507477   49.9355714
   19.7153722   49.9624449
   19.6887655   49.9932478
   19.6719619   50.0268026
   19.6656257   50.0618243
   19.6700230   50.0969690
   19.6850077   50.1308851
   19.7100239   50.1622654
   19.7441242   50.1898980
   19.7860039   50.2127139
   19.8340500   50.2298288
   19.8864039   50.2405786
   19.9410348   50.2445456
   19.9958204   50.2415756
   20.0486321   50.2317839
   20.0974203   50.2155506
   20.1402966   50.1935056
   20.1756079   50.1665033
   20.2020012   50.1355889
   20.2184746   50.1019566
   20.2244141   50.0669033
   20.2196142   50.0317778
   20.2042821   49.9979288
   20.1790265   49.9666531
   20.1448314   49.9391468
END
11
   20.6499563   53.6295443
   20.5978286   53.6127679
   20.5412292   53.6023343
   20.4823097   53.5986396
   20.4233067   53.6018241
   20.3664596   53.6117668
   20.3139290   53.6280901
   20.2677174   53.6501735
   20.2295942   53.6771765
   20.2010293   53.7080696
   20.1831355   53.7416730
   20.1766238   53.7767000
   20.1817724   53.8118067
   20.1984120   53.8456424
   20.2259276   53.8769025
   20.2632787   53.9043787
   20.3090364   53.9270068
   20.3614374   53.9439088
   20.4184523   53.9544279
   20.4778662   53.9581549
   20.5373673   53.9549447
   20.5946404   53.9449221
   20.6474598   53.9284770
   20.6937794   53.9062483
   20.7318131   53.8790988
   20.7601047   53.8480800
   20.7775830   53.8143912
   20.7836003   53.7793318
   20.7779536   53.7442509
   20.7608881   53.7104950
   20.7330835   53.6793568
   20.6956245   53.6520259
   20.6499563   53.6295443
END
12
   20.8300251   50.7393895
   20.7871754   50.7169515
   20.7382890   50.7002312
   20.6852314   50.6898649
   20.6300217   50.6862468
   20.5747582   50.6895143
   20.5215411   50.6995431
   20.4723953   50.7159520
   20.4291957   50.7381164
   20.3935973   50.7651920
   20.3669723   50.7961458
   20.3503566   50.8297946
   20.3444087   50.8648497
   20.3493807   50.8999657
   20.3651055   50.9337918
   20.3909994   50.9650240
   20.4260814   50.9924559
   20.4690088   51.0150258
   20.5181275   51.0318586
   20.5715366   51.0423011
   20.6271637   51.0459476
   20.6828467   51.0426562
   20.7364217   51.0325548
   20.7858093   51.0160359
   20.8290977   50.9937406
   20.8646185   50.9665332
   20.8910112   50.9354668
   20.9072753   50.9017418
   20.9128060   50.8666583
   20.9074144   50.8315662
   20.8913317   50.7978127
   20.8651960   50.7666905
   20.8300251   50.7393895
END
13
   21.2186384   52.1023502
   21.1743032   52.0800615
   21.1238001   52.0635085
   21.0690553   52.0533207
   21.0121510   52.0498851
   20.9552485   52.0533324
   20.9005092   52.0635315
   20.8500150   52.0800950
   20.8056919   52.1023928
   20.7692380   52.1295758
   20.7420588   52.1606071
   20.7252132   52.1943010
   20.7193701   52.2293670
   20.7247797   52.2644594
   20.7412600   52.2982280
   20.7681997   52.3293707
   20.8045786   52.3566841
   20.8490040   52.3791106
   20.8997637   52.3957805
   20.9548924   52.4060465
   21.0122495   52.4095094
   21.0696047   52.4060346
   21.1247277   52.3957572
   21.1754782   52.3790768
   21.2198911   52.3566411
   21.2562548   52.3293201
   21.2831773   52.2981719
   21.2996390   52.2643999
   21.3050294   52.2293065
   21.2991671   52.1942417
   21.2823031   52.1605513
   21.2551071   52.1295256
   21.2186384   52.1023502
END
14
   21.3494361   51.2751051
   21.3058393   51.2528614
   21.2562009   51.2363613
   21.2024144   51.2262326
   21.1465261   51.2228603
   21.0906595   51.2263725
   21.0369373   51.2366359
   20.9874036   51.2532602
   20.9439480   51.2756131
   20.9082357   51.3028431
   20.8816438   51.3339113
   20.8652079   51.3676301
   20.8595802   51.4027082
   20.8650015   51.4377990
   20.8812880   51.4715527
   20.9078350   51.5026676
   20.9436363   51.5299417
   20.9873211   51.5523192
   21.0372060   51.5689323
   21.0913596   51.5791361
   21.1476799   51.5825342
   21.2039776   51.5789944
   21.2580643   51.5686545
   21.3078405   51.5519161
   21.3513796   51.5294291
   21.3870038   51.5020654
   21.4133493   51.4708843
   21.4294181   51.4370903
   21.4346138   51.4019865
   21.4287615   51.3669232
   21.4121104   51.3332461
   21.3853210   51.3022452
   21.3494361   51.2751051
END
15
   22.1934099   49.9121641
   22.1506742   49.8902244
   22.1021671   49.8740720
   22.0497392   49.8643218
   21.9953857   49.8613447
   21.9411729   49.8652540
   21.8891617   49.8759013
   21.8413324   49.8928817
   21.7995109   49.9155489
   21.7653005   49.9430390
   21.7400209   49.9743027
   21.7246569   50.0081447
   21.7198185   50.0432682
   21.7257143   50.0783247
   21.7421404   50.1119652
   21.7684846   50.1428927
   21.8037471   50.1699123
   21.8465766   50.1919783
   21.8953220   50.2082354
   21.9480965   50.2180529
   22.0028520   50.2210495
   22.0574611   50.2171090
   22.1098025   50.2063846
   22.1578456   50.1892928
   22.1997321   50.1664971
   22.2338487   50.1388807
   22.2588899   50.1075122
   22.2739074   50.0736030
   22.2783438   50.0384600
   22.2720518   50.0034347
   22.2552954   49.9698713
   22.2287373   49.9390551
   22.1934099   49.9121641
END
16
   22.7660604   51.1165019
   22.7219491   51.0947916
   22.6719936   51.0788957
   22.6180990   51.0694190
   22.5623152   51.0667220
   22.5067617   51.0709074
   22.4535496   51.0818164
   22.4047043   51.0990343
   22.3620902   51.1219061
   22.3273413   51.1495605
   22.3017990   51.1809421
   22.2864594   51.2148511
   22.2819331   51.2499883
   22.2884186   51.2850044
   22.3056908   51.3185518
   22.3331061   51.3493367
   22.3696237   51.3761692
   22.4138441   51.3980106
   22.4640619   51.4140139
   22.5183322   51.4235579
   22.5745479   51.4262719
   22.6305237   51.4220507
   22.6840841   51.4110585
   22.7331508   51.3937226
   22.7758257   51.3707160
   22.8104655   51.3429305
   22.8357454   51.3114416
   22.8507093   51.2774653
   22.8548038   51.2423110
   22.8478960   51.2073308
   22.8302755   51.1738666
   22.8026389   51.1431997
   22.7660604   51.1165019
END
17
   23.3730056   53.0014450
   23.3266797   52.9799968
   23.2743493   52.9643919
   23.2180082   52.9552239
   23.1597977   52.9528411
   23.1019278   52.9573342
   23.0465960   52.9685330
   22.9959070   52.9860123
   22.9517954   53.0091075
   22.9159528   53.0369391
   22.8897637   53.0684457
   22.8742513   53.1024227
   22.8700357   53.1375686
   22.8773062   53.1725335
   22.8958104   53.2059716
   22.9248592   53.2365926
   22.9633502   53.2632126
   23.0098078   53.2848002
   23.0624394   53.3005178
   23.1192051   53.3097549
   23.1778991   53.3121524
   23.2362378   53.3076175
   23.2919523   53.2963267
   23.3428795   53.2787194
   23.3870488   53.2554794
   23.4227597   53.2275084
   23.4486477   53.1958891
   23.4637354   53.1618430
   23.4674676   53.1266825
   23.4597283   53.0917593
   23.4408414   53.0584132
   23.4115543   53.0279202
   23.3730056   53.0014450
END
END
